<svg xmlns="http://www.w3.org/2000/svg" viewBox="0 0 760 380" width="760" height="380" role="img" aria-label="The distance to the nearest grid line, divided by how much the coordinate changes per pixel, becomes a one-pixel-wide tent of coverage around each line.">
<defs><marker id="a" viewBox="0 0 10 10" refX="9" refY="5" markerWidth="6" markerHeight="6" orient="auto-start-reverse"><path d="M0,0 L10,5 L0,10 z" fill="#e5e7eb"/></marker></defs>
<style>
.ttl{font-family:system-ui,sans-serif;font-size:13px;fill:#c7d2fe}
.lbl{font-family:system-ui,sans-serif;font-size:12px;fill:#d1d5db}
.dim{font-family:system-ui,sans-serif;font-size:11px;fill:#9ca3af}
.mono{font-family:ui-monospace,Consolas,monospace;font-size:12px;fill:#e5e7eb}
.ax{stroke:#6b7280;stroke-width:1.2;fill:none}
.grid{stroke:#374151;stroke-width:1;fill:none}
.dash{stroke:#9ca3af;stroke-width:1;stroke-dasharray:4 3;fill:none}
</style>
<text class="ttl" x="20.0" y="24.0" text-anchor="start">Anti-aliased grid line: distance to the nearest line, measured in pixels</text>
<text class="mono" x="70.0" y="48.0" text-anchor="start">d = |fract(c - 0.5) - 0.5|   (distance to nearest line, in cells)</text>
<line class="ax" x1="70.0" y1="160.0" x2="670.0" y2="160.0"/>
<line class="ax" x1="70.0" y1="60.0" x2="70.0" y2="160.0"/>
<polyline points="70.0,160.0 71.0,159.0 72.0,158.0 73.0,157.0 74.0,156.0 75.0,155.0 76.0,154.0 77.0,153.0 78.0,152.0 79.0,151.0 80.0,150.0 81.0,149.0 82.0,148.0 83.0,147.0 84.0,146.0 85.0,145.0 86.0,144.0 87.0,143.0 88.0,142.0 89.0,141.0 90.0,140.0 91.0,139.0 92.0,138.0 93.0,137.0 94.0,136.0 95.0,135.0 96.0,134.0 97.0,133.0 98.0,132.0 99.0,131.0 100.0,130.0 101.0,129.0 102.0,128.0 103.0,127.0 104.0,126.0 105.0,125.0 106.0,124.0 107.0,123.0 108.0,122.0 109.0,121.0 110.0,120.0 111.0,119.0 112.0,118.0 113.0,117.0 114.0,116.0 115.0,115.0 116.0,114.0 117.0,113.0 118.0,112.0 119.0,111.0 120.0,110.0 121.0,109.0 122.0,108.0 123.0,107.0 124.0,106.0 125.0,105.0 126.0,104.0 127.0,103.0 128.0,102.0 129.0,101.0 130.0,100.0 131.0,99.0 132.0,98.0 133.0,97.0 134.0,96.0 135.0,95.0 136.0,94.0 137.0,93.0 138.0,92.0 139.0,91.0 140.0,90.0 141.0,89.0 142.0,88.0 143.0,87.0 144.0,86.0 145.0,85.0 146.0,84.0 147.0,83.0 148.0,82.0 149.0,81.0 150.0,80.0 151.0,79.0 152.0,78.0 153.0,77.0 154.0,76.0 155.0,75.0 156.0,74.0 157.0,73.0 158.0,72.0 159.0,71.0 160.0,70.0 161.0,69.0 162.0,68.0 163.0,67.0 164.0,66.0 165.0,65.0 166.0,64.0 167.0,63.0 168.0,62.0 169.0,61.0 170.0,60.0 171.0,61.0 172.0,62.0 173.0,63.0 174.0,64.0 175.0,65.0 176.0,66.0 177.0,67.0 178.0,68.0 179.0,69.0 180.0,70.0 181.0,71.0 182.0,72.0 183.0,73.0 184.0,74.0 185.0,75.0 186.0,76.0 187.0,77.0 188.0,78.0 189.0,79.0 190.0,80.0 191.0,81.0 192.0,82.0 193.0,83.0 194.0,84.0 195.0,85.0 196.0,86.0 197.0,87.0 198.0,88.0 199.0,89.0 200.0,90.0 201.0,91.0 202.0,92.0 203.0,93.0 204.0,94.0 205.0,95.0 206.0,96.0 207.0,97.0 208.0,98.0 209.0,99.0 210.0,100.0 211.0,101.0 212.0,102.0 213.0,103.0 214.0,104.0 215.0,105.0 216.0,106.0 217.0,107.0 218.0,108.0 219.0,109.0 220.0,110.0 221.0,111.0 222.0,112.0 223.0,113.0 224.0,114.0 225.0,115.0 226.0,116.0 227.0,117.0 228.0,118.0 229.0,119.0 230.0,120.0 231.0,121.0 232.0,122.0 233.0,123.0 234.0,124.0 235.0,125.0 236.0,126.0 237.0,127.0 238.0,128.0 239.0,129.0 240.0,130.0 241.0,131.0 242.0,132.0 243.0,133.0 244.0,134.0 245.0,135.0 246.0,136.0 247.0,137.0 248.0,138.0 249.0,139.0 250.0,140.0 251.0,141.0 252.0,142.0 253.0,143.0 254.0,144.0 255.0,145.0 256.0,146.0 257.0,147.0 258.0,148.0 259.0,149.0 260.0,150.0 261.0,151.0 262.0,152.0 263.0,153.0 264.0,154.0 265.0,155.0 266.0,156.0 267.0,157.0 268.0,158.0 269.0,159.0 270.0,160.0 271.0,159.0 272.0,158.0 273.0,157.0 274.0,156.0 275.0,155.0 276.0,154.0 277.0,153.0 278.0,152.0 279.0,151.0 280.0,150.0 281.0,149.0 282.0,148.0 283.0,147.0 284.0,146.0 285.0,145.0 286.0,144.0 287.0,143.0 288.0,142.0 289.0,141.0 290.0,140.0 291.0,139.0 292.0,138.0 293.0,137.0 294.0,136.0 295.0,135.0 296.0,134.0 297.0,133.0 298.0,132.0 299.0,131.0 300.0,130.0 301.0,129.0 302.0,128.0 303.0,127.0 304.0,126.0 305.0,125.0 306.0,124.0 307.0,123.0 308.0,122.0 309.0,121.0 310.0,120.0 311.0,119.0 312.0,118.0 313.0,117.0 314.0,116.0 315.0,115.0 316.0,114.0 317.0,113.0 318.0,112.0 319.0,111.0 320.0,110.0 321.0,109.0 322.0,108.0 323.0,107.0 324.0,106.0 325.0,105.0 326.0,104.0 327.0,103.0 328.0,102.0 329.0,101.0 330.0,100.0 331.0,99.0 332.0,98.0 333.0,97.0 334.0,96.0 335.0,95.0 336.0,94.0 337.0,93.0 338.0,92.0 339.0,91.0 340.0,90.0 341.0,89.0 342.0,88.0 343.0,87.0 344.0,86.0 345.0,85.0 346.0,84.0 347.0,83.0 348.0,82.0 349.0,81.0 350.0,80.0 351.0,79.0 352.0,78.0 353.0,77.0 354.0,76.0 355.0,75.0 356.0,74.0 357.0,73.0 358.0,72.0 359.0,71.0 360.0,70.0 361.0,69.0 362.0,68.0 363.0,67.0 364.0,66.0 365.0,65.0 366.0,64.0 367.0,63.0 368.0,62.0 369.0,61.0 370.0,60.0 371.0,61.0 372.0,62.0 373.0,63.0 374.0,64.0 375.0,65.0 376.0,66.0 377.0,67.0 378.0,68.0 379.0,69.0 380.0,70.0 381.0,71.0 382.0,72.0 383.0,73.0 384.0,74.0 385.0,75.0 386.0,76.0 387.0,77.0 388.0,78.0 389.0,79.0 390.0,80.0 391.0,81.0 392.0,82.0 393.0,83.0 394.0,84.0 395.0,85.0 396.0,86.0 397.0,87.0 398.0,88.0 399.0,89.0 400.0,90.0 401.0,91.0 402.0,92.0 403.0,93.0 404.0,94.0 405.0,95.0 406.0,96.0 407.0,97.0 408.0,98.0 409.0,99.0 410.0,100.0 411.0,101.0 412.0,102.0 413.0,103.0 414.0,104.0 415.0,105.0 416.0,106.0 417.0,107.0 418.0,108.0 419.0,109.0 420.0,110.0 421.0,111.0 422.0,112.0 423.0,113.0 424.0,114.0 425.0,115.0 426.0,116.0 427.0,117.0 428.0,118.0 429.0,119.0 430.0,120.0 431.0,121.0 432.0,122.0 433.0,123.0 434.0,124.0 435.0,125.0 436.0,126.0 437.0,127.0 438.0,128.0 439.0,129.0 440.0,130.0 441.0,131.0 442.0,132.0 443.0,133.0 444.0,134.0 445.0,135.0 446.0,136.0 447.0,137.0 448.0,138.0 449.0,139.0 450.0,140.0 451.0,141.0 452.0,142.0 453.0,143.0 454.0,144.0 455.0,145.0 456.0,146.0 457.0,147.0 458.0,148.0 459.0,149.0 460.0,150.0 461.0,151.0 462.0,152.0 463.0,153.0 464.0,154.0 465.0,155.0 466.0,156.0 467.0,157.0 468.0,158.0 469.0,159.0 470.0,160.0 471.0,159.0 472.0,158.0 473.0,157.0 474.0,156.0 475.0,155.0 476.0,154.0 477.0,153.0 478.0,152.0 479.0,151.0 480.0,150.0 481.0,149.0 482.0,148.0 483.0,147.0 484.0,146.0 485.0,145.0 486.0,144.0 487.0,143.0 488.0,142.0 489.0,141.0 490.0,140.0 491.0,139.0 492.0,138.0 493.0,137.0 494.0,136.0 495.0,135.0 496.0,134.0 497.0,133.0 498.0,132.0 499.0,131.0 500.0,130.0 501.0,129.0 502.0,128.0 503.0,127.0 504.0,126.0 505.0,125.0 506.0,124.0 507.0,123.0 508.0,122.0 509.0,121.0 510.0,120.0 511.0,119.0 512.0,118.0 513.0,117.0 514.0,116.0 515.0,115.0 516.0,114.0 517.0,113.0 518.0,112.0 519.0,111.0 520.0,110.0 521.0,109.0 522.0,108.0 523.0,107.0 524.0,106.0 525.0,105.0 526.0,104.0 527.0,103.0 528.0,102.0 529.0,101.0 530.0,100.0 531.0,99.0 532.0,98.0 533.0,97.0 534.0,96.0 535.0,95.0 536.0,94.0 537.0,93.0 538.0,92.0 539.0,91.0 540.0,90.0 541.0,89.0 542.0,88.0 543.0,87.0 544.0,86.0 545.0,85.0 546.0,84.0 547.0,83.0 548.0,82.0 549.0,81.0 550.0,80.0 551.0,79.0 552.0,78.0 553.0,77.0 554.0,76.0 555.0,75.0 556.0,74.0 557.0,73.0 558.0,72.0 559.0,71.0 560.0,70.0 561.0,69.0 562.0,68.0 563.0,67.0 564.0,66.0 565.0,65.0 566.0,64.0 567.0,63.0 568.0,62.0 569.0,61.0 570.0,60.0 571.0,61.0 572.0,62.0 573.0,63.0 574.0,64.0 575.0,65.0 576.0,66.0 577.0,67.0 578.0,68.0 579.0,69.0 580.0,70.0 581.0,71.0 582.0,72.0 583.0,73.0 584.0,74.0 585.0,75.0 586.0,76.0 587.0,77.0 588.0,78.0 589.0,79.0 590.0,80.0 591.0,81.0 592.0,82.0 593.0,83.0 594.0,84.0 595.0,85.0 596.0,86.0 597.0,87.0 598.0,88.0 599.0,89.0 600.0,90.0 601.0,91.0 602.0,92.0 603.0,93.0 604.0,94.0 605.0,95.0 606.0,96.0 607.0,97.0 608.0,98.0 609.0,99.0 610.0,100.0 611.0,101.0 612.0,102.0 613.0,103.0 614.0,104.0 615.0,105.0 616.0,106.0 617.0,107.0 618.0,108.0 619.0,109.0 620.0,110.0 621.0,111.0 622.0,112.0 623.0,113.0 624.0,114.0 625.0,115.0 626.0,116.0 627.0,117.0 628.0,118.0 629.0,119.0 630.0,120.0 631.0,121.0 632.0,122.0 633.0,123.0 634.0,124.0 635.0,125.0 636.0,126.0 637.0,127.0 638.0,128.0 639.0,129.0 640.0,130.0 641.0,131.0 642.0,132.0 643.0,133.0 644.0,134.0 645.0,135.0 646.0,136.0 647.0,137.0 648.0,138.0 649.0,139.0 650.0,140.0 651.0,141.0 652.0,142.0 653.0,143.0 654.0,144.0 655.0,145.0 656.0,146.0 657.0,147.0 658.0,148.0 659.0,149.0 660.0,150.0 661.0,151.0 662.0,152.0 663.0,153.0 664.0,154.0 665.0,155.0 666.0,156.0 667.0,157.0 668.0,158.0 669.0,159.0 670.0,160.0" fill="none" stroke="#a78bfa" stroke-width="2.2" stroke-linejoin="round"/>
<line class="dash" x1="70.0" y1="116.0" x2="670.0" y2="116.0"/>
<text class="dim" x="676.0" y="120.0" text-anchor="start">fwidth(c)</text>
<text class="dim" x="70.0" y="176.0" text-anchor="middle">0</text>
<text class="dim" x="270.0" y="176.0" text-anchor="middle">1</text>
<text class="dim" x="470.0" y="176.0" text-anchor="middle">2</text>
<text class="dim" x="670.0" y="176.0" text-anchor="middle">3</text>
<text class="mono" x="70.0" y="205.0" text-anchor="start">line = 1 - min(d / fwidth(c), 1)   (coverage, used as alpha)</text>
<line class="ax" x1="70.0" y1="315.0" x2="670.0" y2="315.0"/>
<line class="ax" x1="70.0" y1="215.0" x2="70.0" y2="315.0"/>
<polyline points="70.0,215.0 71.0,217.3 72.0,219.5 73.0,221.8 74.0,224.1 75.0,226.4 76.0,228.6 77.0,230.9 78.0,233.2 79.0,235.5 80.0,237.7 81.0,240.0 82.0,242.3 83.0,244.5 84.0,246.8 85.0,249.1 86.0,251.4 87.0,253.6 88.0,255.9 89.0,258.2 90.0,260.5 91.0,262.7 92.0,265.0 93.0,267.3 94.0,269.5 95.0,271.8 96.0,274.1 97.0,276.4 98.0,278.6 99.0,280.9 100.0,283.2 101.0,285.5 102.0,287.7 103.0,290.0 104.0,292.3 105.0,294.5 106.0,296.8 107.0,299.1 108.0,301.4 109.0,303.6 110.0,305.9 111.0,308.2 112.0,310.5 113.0,312.7 114.0,315.0 115.0,315.0 116.0,315.0 117.0,315.0 118.0,315.0 119.0,315.0 120.0,315.0 121.0,315.0 122.0,315.0 123.0,315.0 124.0,315.0 125.0,315.0 126.0,315.0 127.0,315.0 128.0,315.0 129.0,315.0 130.0,315.0 131.0,315.0 132.0,315.0 133.0,315.0 134.0,315.0 135.0,315.0 136.0,315.0 137.0,315.0 138.0,315.0 139.0,315.0 140.0,315.0 141.0,315.0 142.0,315.0 143.0,315.0 144.0,315.0 145.0,315.0 146.0,315.0 147.0,315.0 148.0,315.0 149.0,315.0 150.0,315.0 151.0,315.0 152.0,315.0 153.0,315.0 154.0,315.0 155.0,315.0 156.0,315.0 157.0,315.0 158.0,315.0 159.0,315.0 160.0,315.0 161.0,315.0 162.0,315.0 163.0,315.0 164.0,315.0 165.0,315.0 166.0,315.0 167.0,315.0 168.0,315.0 169.0,315.0 170.0,315.0 171.0,315.0 172.0,315.0 173.0,315.0 174.0,315.0 175.0,315.0 176.0,315.0 177.0,315.0 178.0,315.0 179.0,315.0 180.0,315.0 181.0,315.0 182.0,315.0 183.0,315.0 184.0,315.0 185.0,315.0 186.0,315.0 187.0,315.0 188.0,315.0 189.0,315.0 190.0,315.0 191.0,315.0 192.0,315.0 193.0,315.0 194.0,315.0 195.0,315.0 196.0,315.0 197.0,315.0 198.0,315.0 199.0,315.0 200.0,315.0 201.0,315.0 202.0,315.0 203.0,315.0 204.0,315.0 205.0,315.0 206.0,315.0 207.0,315.0 208.0,315.0 209.0,315.0 210.0,315.0 211.0,315.0 212.0,315.0 213.0,315.0 214.0,315.0 215.0,315.0 216.0,315.0 217.0,315.0 218.0,315.0 219.0,315.0 220.0,315.0 221.0,315.0 222.0,315.0 223.0,315.0 224.0,315.0 225.0,315.0 226.0,315.0 227.0,312.7 228.0,310.5 229.0,308.2 230.0,305.9 231.0,303.6 232.0,301.4 233.0,299.1 234.0,296.8 235.0,294.5 236.0,292.3 237.0,290.0 238.0,287.7 239.0,285.5 240.0,283.2 241.0,280.9 242.0,278.6 243.0,276.4 244.0,274.1 245.0,271.8 246.0,269.5 247.0,267.3 248.0,265.0 249.0,262.7 250.0,260.5 251.0,258.2 252.0,255.9 253.0,253.6 254.0,251.4 255.0,249.1 256.0,246.8 257.0,244.5 258.0,242.3 259.0,240.0 260.0,237.7 261.0,235.5 262.0,233.2 263.0,230.9 264.0,228.6 265.0,226.4 266.0,224.1 267.0,221.8 268.0,219.5 269.0,217.3 270.0,215.0 271.0,217.3 272.0,219.5 273.0,221.8 274.0,224.1 275.0,226.4 276.0,228.6 277.0,230.9 278.0,233.2 279.0,235.5 280.0,237.7 281.0,240.0 282.0,242.3 283.0,244.5 284.0,246.8 285.0,249.1 286.0,251.4 287.0,253.6 288.0,255.9 289.0,258.2 290.0,260.5 291.0,262.7 292.0,265.0 293.0,267.3 294.0,269.5 295.0,271.8 296.0,274.1 297.0,276.4 298.0,278.6 299.0,280.9 300.0,283.2 301.0,285.5 302.0,287.7 303.0,290.0 304.0,292.3 305.0,294.5 306.0,296.8 307.0,299.1 308.0,301.4 309.0,303.6 310.0,305.9 311.0,308.2 312.0,310.5 313.0,312.7 314.0,315.0 315.0,315.0 316.0,315.0 317.0,315.0 318.0,315.0 319.0,315.0 320.0,315.0 321.0,315.0 322.0,315.0 323.0,315.0 324.0,315.0 325.0,315.0 326.0,315.0 327.0,315.0 328.0,315.0 329.0,315.0 330.0,315.0 331.0,315.0 332.0,315.0 333.0,315.0 334.0,315.0 335.0,315.0 336.0,315.0 337.0,315.0 338.0,315.0 339.0,315.0 340.0,315.0 341.0,315.0 342.0,315.0 343.0,315.0 344.0,315.0 345.0,315.0 346.0,315.0 347.0,315.0 348.0,315.0 349.0,315.0 350.0,315.0 351.0,315.0 352.0,315.0 353.0,315.0 354.0,315.0 355.0,315.0 356.0,315.0 357.0,315.0 358.0,315.0 359.0,315.0 360.0,315.0 361.0,315.0 362.0,315.0 363.0,315.0 364.0,315.0 365.0,315.0 366.0,315.0 367.0,315.0 368.0,315.0 369.0,315.0 370.0,315.0 371.0,315.0 372.0,315.0 373.0,315.0 374.0,315.0 375.0,315.0 376.0,315.0 377.0,315.0 378.0,315.0 379.0,315.0 380.0,315.0 381.0,315.0 382.0,315.0 383.0,315.0 384.0,315.0 385.0,315.0 386.0,315.0 387.0,315.0 388.0,315.0 389.0,315.0 390.0,315.0 391.0,315.0 392.0,315.0 393.0,315.0 394.0,315.0 395.0,315.0 396.0,315.0 397.0,315.0 398.0,315.0 399.0,315.0 400.0,315.0 401.0,315.0 402.0,315.0 403.0,315.0 404.0,315.0 405.0,315.0 406.0,315.0 407.0,315.0 408.0,315.0 409.0,315.0 410.0,315.0 411.0,315.0 412.0,315.0 413.0,315.0 414.0,315.0 415.0,315.0 416.0,315.0 417.0,315.0 418.0,315.0 419.0,315.0 420.0,315.0 421.0,315.0 422.0,315.0 423.0,315.0 424.0,315.0 425.0,315.0 426.0,315.0 427.0,312.7 428.0,310.5 429.0,308.2 430.0,305.9 431.0,303.6 432.0,301.4 433.0,299.1 434.0,296.8 435.0,294.5 436.0,292.3 437.0,290.0 438.0,287.7 439.0,285.5 440.0,283.2 441.0,280.9 442.0,278.6 443.0,276.4 444.0,274.1 445.0,271.8 446.0,269.5 447.0,267.3 448.0,265.0 449.0,262.7 450.0,260.5 451.0,258.2 452.0,255.9 453.0,253.6 454.0,251.4 455.0,249.1 456.0,246.8 457.0,244.5 458.0,242.3 459.0,240.0 460.0,237.7 461.0,235.5 462.0,233.2 463.0,230.9 464.0,228.6 465.0,226.4 466.0,224.1 467.0,221.8 468.0,219.5 469.0,217.3 470.0,215.0 471.0,217.3 472.0,219.5 473.0,221.8 474.0,224.1 475.0,226.4 476.0,228.6 477.0,230.9 478.0,233.2 479.0,235.5 480.0,237.7 481.0,240.0 482.0,242.3 483.0,244.5 484.0,246.8 485.0,249.1 486.0,251.4 487.0,253.6 488.0,255.9 489.0,258.2 490.0,260.5 491.0,262.7 492.0,265.0 493.0,267.3 494.0,269.5 495.0,271.8 496.0,274.1 497.0,276.4 498.0,278.6 499.0,280.9 500.0,283.2 501.0,285.5 502.0,287.7 503.0,290.0 504.0,292.3 505.0,294.5 506.0,296.8 507.0,299.1 508.0,301.4 509.0,303.6 510.0,305.9 511.0,308.2 512.0,310.5 513.0,312.7 514.0,315.0 515.0,315.0 516.0,315.0 517.0,315.0 518.0,315.0 519.0,315.0 520.0,315.0 521.0,315.0 522.0,315.0 523.0,315.0 524.0,315.0 525.0,315.0 526.0,315.0 527.0,315.0 528.0,315.0 529.0,315.0 530.0,315.0 531.0,315.0 532.0,315.0 533.0,315.0 534.0,315.0 535.0,315.0 536.0,315.0 537.0,315.0 538.0,315.0 539.0,315.0 540.0,315.0 541.0,315.0 542.0,315.0 543.0,315.0 544.0,315.0 545.0,315.0 546.0,315.0 547.0,315.0 548.0,315.0 549.0,315.0 550.0,315.0 551.0,315.0 552.0,315.0 553.0,315.0 554.0,315.0 555.0,315.0 556.0,315.0 557.0,315.0 558.0,315.0 559.0,315.0 560.0,315.0 561.0,315.0 562.0,315.0 563.0,315.0 564.0,315.0 565.0,315.0 566.0,315.0 567.0,315.0 568.0,315.0 569.0,315.0 570.0,315.0 571.0,315.0 572.0,315.0 573.0,315.0 574.0,315.0 575.0,315.0 576.0,315.0 577.0,315.0 578.0,315.0 579.0,315.0 580.0,315.0 581.0,315.0 582.0,315.0 583.0,315.0 584.0,315.0 585.0,315.0 586.0,315.0 587.0,315.0 588.0,315.0 589.0,315.0 590.0,315.0 591.0,315.0 592.0,315.0 593.0,315.0 594.0,315.0 595.0,315.0 596.0,315.0 597.0,315.0 598.0,315.0 599.0,315.0 600.0,315.0 601.0,315.0 602.0,315.0 603.0,315.0 604.0,315.0 605.0,315.0 606.0,315.0 607.0,315.0 608.0,315.0 609.0,315.0 610.0,315.0 611.0,315.0 612.0,315.0 613.0,315.0 614.0,315.0 615.0,315.0 616.0,315.0 617.0,315.0 618.0,315.0 619.0,315.0 620.0,315.0 621.0,315.0 622.0,315.0 623.0,315.0 624.0,315.0 625.0,315.0 626.0,315.0 627.0,312.7 628.0,310.5 629.0,308.2 630.0,305.9 631.0,303.6 632.0,301.4 633.0,299.1 634.0,296.8 635.0,294.5 636.0,292.3 637.0,290.0 638.0,287.7 639.0,285.5 640.0,283.2 641.0,280.9 642.0,278.6 643.0,276.4 644.0,274.1 645.0,271.8 646.0,269.5 647.0,267.3 648.0,265.0 649.0,262.7 650.0,260.5 651.0,258.2 652.0,255.9 653.0,253.6 654.0,251.4 655.0,249.1 656.0,246.8 657.0,244.5 658.0,242.3 659.0,240.0 660.0,237.7 661.0,235.5 662.0,233.2 663.0,230.9 664.0,228.6 665.0,226.4 666.0,224.1 667.0,221.8 668.0,219.5 669.0,217.3 670.0,215.0" fill="none" stroke="#34d399" stroke-width="2.2" stroke-linejoin="round"/>
<text class="dim" x="70.0" y="331.0" text-anchor="middle">0</text>
<text class="dim" x="270.0" y="331.0" text-anchor="middle">1</text>
<text class="dim" x="470.0" y="331.0" text-anchor="middle">2</text>
<text class="dim" x="670.0" y="331.0" text-anchor="middle">3</text>
<text class="lbl" x="370.0" y="353.0" text-anchor="middle">c = worldPos.xz / cellSize   (grid lines at whole numbers)</text>
</svg>
